<svg xmlns="http://www.w3.org/2000/svg" width="525.35" height="527.972" viewBox="0 0 525.35 527.972">
  <g id="undraw_browsing_re_eycn" transform="translate(0 0)">
    <path id="Path_1" data-name="Path 1" d="M821.888,183.767l-522.425,62.84a.315.315,0,0,1-.177-.03.408.408,0,0,1-.145-.122.62.62,0,0,1-.1-.195.851.851,0,0,1-.035-.248.945.945,0,0,1,.036-.257.822.822,0,0,1,.1-.218.583.583,0,0,1,.145-.157.378.378,0,0,1,.177-.073L821.888,181.6a1.385,1.385,0,0,1,.492.025,1.121,1.121,0,0,1,.4.183.916.916,0,0,1,.271.311.875.875,0,0,1,.1.407,1.028,1.028,0,0,1-.1.434,1.3,1.3,0,0,1-.271.377,1.525,1.525,0,0,1-.4.281,1.561,1.561,0,0,1-.492.148Z" transform="translate(-299.008 -151.844)" fill="#cacaca"/>
    <path id="Path_1-2" data-name="Path 1" d="M822.828,744.528,299.342,691.24a.314.314,0,0,1-.166-.068.4.4,0,0,1-.114-.151.619.619,0,0,1-.053-.211.85.85,0,0,1,.02-.25.94.94,0,0,1,.091-.243.825.825,0,0,1,.145-.191.583.583,0,0,1,.175-.121.379.379,0,0,1,.189-.032L823.3,742.414a1.384,1.384,0,0,1,.474.132,1.119,1.119,0,0,1,.352.267.919.919,0,0,1,.2.363.876.876,0,0,1,.008.419,1.022,1.022,0,0,1-.193.4,1.3,1.3,0,0,1-.347.309,1.528,1.528,0,0,1-.454.186A1.564,1.564,0,0,1,822.828,744.528Z" transform="translate(-299.008 -216.564)" fill="#cacaca"/>
    <path id="Ellipse_1" data-name="Ellipse 1" d="M310.671,227.48a3.564,3.564,0,0,1,2,.271,4.428,4.428,0,0,1,1.645,1.313,6.674,6.674,0,0,1,1.113,2.153,9.262,9.262,0,0,1,.407,2.782,10.438,10.438,0,0,1-.407,2.9,9.271,9.271,0,0,1-1.113,2.467,6.7,6.7,0,0,1-1.645,1.778,4.387,4.387,0,0,1-2,.831,3.564,3.564,0,0,1-1.994-.3,4.473,4.473,0,0,1-1.621-1.331,6.724,6.724,0,0,1-1.09-2.142,9.273,9.273,0,0,1-.4-2.748,10.442,10.442,0,0,1,.4-2.862,9.313,9.313,0,0,1,1.089-2.449,6.775,6.775,0,0,1,1.622-1.788A4.44,4.44,0,0,1,310.671,227.48Z" transform="translate(-299.843 -157.681)" fill="#1d242b"/>
    <path id="Ellipse_2" data-name="Ellipse 2" d="M331.438,224.359a3.8,3.8,0,0,1,2.1.271,4.6,4.6,0,0,1,1.724,1.335,6.747,6.747,0,0,1,1.164,2.2,9.263,9.263,0,0,1,.426,2.845,10.471,10.471,0,0,1-.428,2.966,9.417,9.417,0,0,1-1.162,2.522,6.947,6.947,0,0,1-1.721,1.824,4.662,4.662,0,0,1-2.1.86,3.8,3.8,0,0,1-2.087-.306,4.642,4.642,0,0,1-1.7-1.357,6.8,6.8,0,0,1-1.142-2.186,9.278,9.278,0,0,1-.417-2.809,10.47,10.47,0,0,1,.417-2.926,9.459,9.459,0,0,1,1.139-2.511,7.025,7.025,0,0,1,1.7-1.832A4.716,4.716,0,0,1,331.438,224.359Z" transform="translate(-302.456 -157.283)" fill="#1d242b"/>
    <path id="Ellipse_3" data-name="Ellipse 3" d="M353.175,221.086a4.062,4.062,0,0,1,2.2.268,4.778,4.778,0,0,1,1.8,1.364,6.828,6.828,0,0,1,1.221,2.247,9.265,9.265,0,0,1,.449,2.908,10.5,10.5,0,0,1-.448,3.033,9.577,9.577,0,0,1-1.222,2.592,7.218,7.218,0,0,1-1.8,1.873,4.963,4.963,0,0,1-2.2.886,4.058,4.058,0,0,1-2.186-.306,4.819,4.819,0,0,1-1.777-1.382,6.878,6.878,0,0,1-1.192-2.236,9.281,9.281,0,0,1-.437-2.87,10.5,10.5,0,0,1,.438-3,9.608,9.608,0,0,1,1.191-2.57,7.288,7.288,0,0,1,1.778-1.884A5.022,5.022,0,0,1,353.175,221.086Z" transform="translate(-305.192 -156.866)" fill="#1d242b"/>
    <path id="Path_2" data-name="Path 2" d="M860.918,151.778l-31.855,4.605a2.4,2.4,0,0,1-.9-.033,1.952,1.952,0,0,1-.73-.339,1.681,1.681,0,0,1-.491-.585,1.711,1.711,0,0,1-.181-.774,2.061,2.061,0,0,1,.181-.83,2.544,2.544,0,0,1,.491-.729,2.859,2.859,0,0,1,.73-.55,2.792,2.792,0,0,1,.9-.294l31.854-4.712a2.592,2.592,0,0,1,.943.027,2.068,2.068,0,0,1,.771.339,1.7,1.7,0,0,1,.71,1.4,2.079,2.079,0,0,1-.191.855,2.626,2.626,0,0,1-.519.752,3.032,3.032,0,0,1-1.714.87Z" transform="translate(-366.194 -147.505)" fill="#1d242b"/>
    <path id="Path_3" data-name="Path 3" d="M860.918,160.89,829.063,165.3a2.4,2.4,0,0,1-.9-.039,1.962,1.962,0,0,1-.73-.339,1.7,1.7,0,0,1-.491-.588,1.719,1.719,0,0,1-.181-.784,2.055,2.055,0,0,1,.181-.829,2.516,2.516,0,0,1,.491-.725,2.828,2.828,0,0,1,.73-.543,2.783,2.783,0,0,1,.9-.289l31.854-4.516a2.594,2.594,0,0,1,.943.033,2.085,2.085,0,0,1,.771.346,1.7,1.7,0,0,1,.71,1.4,2.07,2.07,0,0,1-.191.854,2.59,2.59,0,0,1-.521.746,3,3,0,0,1-1.713.859Z" transform="translate(-366.194 -148.665)" fill="#1d242b"/>
    <path id="Path_4" data-name="Path 4" d="M860.918,170l-31.855,4.207a2.407,2.407,0,0,1-.9-.044,1.977,1.977,0,0,1-.73-.346,1.7,1.7,0,0,1-.672-1.368,2.046,2.046,0,0,1,.18-.828,2.5,2.5,0,0,1,.492-.723,2.807,2.807,0,0,1,.73-.543,2.764,2.764,0,0,1,.9-.284l31.854-4.313a2.6,2.6,0,0,1,.943.039,2.1,2.1,0,0,1,.771.351,1.753,1.753,0,0,1,.52.605,1.73,1.73,0,0,1,.189.8,2.052,2.052,0,0,1-.191.852,2.57,2.57,0,0,1-.52.746,2.985,2.985,0,0,1-1.713.848Z" transform="translate(-366.194 -149.826)" fill="#1d242b"/>
    <path id="Rectangle_1" data-name="Rectangle 1" d="M692.359,252.865l153.872-13.032v91.721l-153.872,2.008Z" transform="translate(-349.083 -159.259)" fill="#f0f0f0"/>
    <path id="Path_5" data-name="Path 5" d="M815.846,391.05l-91.382-1.816a4.107,4.107,0,0,1-2.813-1.185,3.953,3.953,0,0,1-.85-1.241,3.793,3.793,0,0,1-.312-1.506,3.72,3.72,0,0,1,.311-1.493,3.777,3.777,0,0,1,.85-1.216,3.915,3.915,0,0,1,1.263-.81,4.048,4.048,0,0,1,1.55-.283l91.381,1.2a5.132,5.132,0,0,1,1.811.352,4.818,4.818,0,0,1,1.483.917,4.29,4.29,0,0,1,1,1.343,3.841,3.841,0,0,1,.368,1.636,3.764,3.764,0,0,1-.368,1.624,4.091,4.091,0,0,1-1,1.312,4.61,4.61,0,0,1-1.483.868,5.049,5.049,0,0,1-1.81.293Z" transform="translate(-352.664 -177.294)" fill="#e4e4e4"/>
    <path id="Path_6" data-name="Path 6" d="M802.148,374.7l-61.865-.52a4.237,4.237,0,0,1-1.588-.32,4.131,4.131,0,0,1-1.294-.848,3.945,3.945,0,0,1-.871-1.247,3.775,3.775,0,0,1,0-3.037,3.889,3.889,0,0,1,.871-1.238,4.072,4.072,0,0,1,1.293-.834,4.216,4.216,0,0,1,1.589-.3l61.865.106a4.919,4.919,0,0,1,1.765.327,4.621,4.621,0,0,1,1.445.888,4.166,4.166,0,0,1,.977,1.318,3.793,3.793,0,0,1,0,3.219,4.1,4.1,0,0,1-.977,1.307,4.558,4.558,0,0,1-1.445.874,4.893,4.893,0,0,1-1.764.309Z" transform="translate(-354.666 -175.366)" fill="#e4e4e4"/>
    <path id="Rectangle_2" data-name="Rectangle 2" d="M692.359,422.913l153.872,7.016V521.65L692.359,503.609Z" transform="translate(-349.083 -182.566)" fill="#f0f0f0"/>
    <path id="Path_7" data-name="Path 7" d="M815.846,575.355l-91.382-13.723a4.557,4.557,0,0,1-1.55-.536,4.928,4.928,0,0,1-1.263-1.018,4.734,4.734,0,0,1-.85-1.35,4.09,4.09,0,0,1-.311-1.546,3.438,3.438,0,0,1,.311-1.455,3.146,3.146,0,0,1,.85-1.1,3.312,3.312,0,0,1,1.263-.645,3.867,3.867,0,0,1,1.55-.082l91.381,13.11a5.639,5.639,0,0,1,1.81.588,5.774,5.774,0,0,1,1.483,1.11,5.143,5.143,0,0,1,1,1.476,4.164,4.164,0,0,1,.368,1.684,3.456,3.456,0,0,1-.368,1.576,3.391,3.391,0,0,1-1,1.182,3.941,3.941,0,0,1-1.483.675,4.863,4.863,0,0,1-1.811.056Z" transform="translate(-352.664 -199.235)" fill="#e4e4e4"/>
    <path id="Path_8" data-name="Path 8" d="M802.149,557.228l-61.865-8.581a4.663,4.663,0,0,1-1.588-.527A4.964,4.964,0,0,1,737.4,547.1a4.708,4.708,0,0,1-.871-1.357,4.071,4.071,0,0,1-.32-1.562,3.458,3.458,0,0,1,.319-1.475,3.231,3.231,0,0,1,.871-1.125,3.446,3.446,0,0,1,1.293-.666,4.012,4.012,0,0,1,1.589-.1l61.865,8.166a5.387,5.387,0,0,1,1.764.557,5.533,5.533,0,0,1,1.445,1.077,4.991,4.991,0,0,1,.976,1.444,4.12,4.12,0,0,1,.358,1.658,3.48,3.48,0,0,1-.358,1.561,3.406,3.406,0,0,1-.976,1.18,3.882,3.882,0,0,1-1.445.685,4.691,4.691,0,0,1-1.764.079Z" transform="translate(-354.666 -197.571)" fill="#e4e4e4"/>
    <path id="Path_9" data-name="Path 9" d="M553.964,484.423,312.038,453.449a3.962,3.962,0,0,1-1.815-.751,5.977,5.977,0,0,1-1.476-1.593,8.27,8.27,0,0,1-.993-2.206,9.4,9.4,0,0,1-.364-2.593V293.525a9.229,9.229,0,0,1,.364-2.579,7.852,7.852,0,0,1,.993-2.157,5.581,5.581,0,0,1,1.476-1.526,3.784,3.784,0,0,1,1.815-.667l241.926-19.808a7.117,7.117,0,0,1,5.653,2.07,7.852,7.852,0,0,1,1.726,2.612,8.8,8.8,0,0,1,.637,3.319v202a8.577,8.577,0,0,1-.637,3.29,7.37,7.37,0,0,1-1.726,2.532,6.772,6.772,0,0,1-2.549,1.527A7.052,7.052,0,0,1,553.964,484.423Z" transform="translate(-300.075 -162.687)" fill="#fff"/>
    <path id="Path_10" data-name="Path 10" d="M460.293,386.259a16.042,16.042,0,0,0-2.184-2.319,14.316,14.316,0,0,0-2.483-1.736,12.92,12.92,0,0,0-2.7-1.112,12.023,12.023,0,0,0-2.834-.45,11.729,11.729,0,0,0-2.827.238,12.071,12.071,0,0,0-2.681.9,12.988,12.988,0,0,0-2.46,1.518,14.384,14.384,0,0,0-2.164,2.1l-65.1,77.794a7.391,7.391,0,0,1-2.808,2.118,6.311,6.311,0,0,1-3.171.445,7.341,7.341,0,0,1-3.149-1.167,10.115,10.115,0,0,1-2.753-2.72l-8.623-12.4a13.485,13.485,0,0,0-3.743-3.706,9.458,9.458,0,0,0-4.215-1.508,8.143,8.143,0,0,0-4.174.706,9.89,9.89,0,0,0-3.635,2.937l-15.6,19.781L541.078,495.21v-3.868Z" transform="translate(-302.061 -177.184)" fill="#0077c0"/>
    <path id="Path_11" data-name="Path 11" d="M553.734,486.915,311.809,455.262a5.318,5.318,0,0,1-2.431-1.012,8.021,8.021,0,0,1-1.975-2.138,11.089,11.089,0,0,1-1.326-2.954,12.6,12.6,0,0,1-.487-3.468V293.212a12.363,12.363,0,0,1,.487-3.446,10.528,10.528,0,0,1,1.326-2.893,7.494,7.494,0,0,1,1.974-2.047,5.08,5.08,0,0,1,2.431-.9l241.926-20.492a9.54,9.54,0,0,1,7.592,2.76,10.526,10.526,0,0,1,2.324,3.5,11.8,11.8,0,0,1,.858,4.46V476.691a11.5,11.5,0,0,1-.858,4.42,9.878,9.878,0,0,1-2.324,3.4,9.074,9.074,0,0,1-3.427,2.041,9.459,9.459,0,0,1-4.165.367ZM311.809,288.41a2.493,2.493,0,0,0-1.2.437,3.678,3.678,0,0,0-.976,1.006,5.178,5.178,0,0,0-.657,1.425,6.087,6.087,0,0,0-.242,1.7V446.063a6.205,6.205,0,0,0,.241,1.712,5.451,5.451,0,0,0,.657,1.458,3.933,3.933,0,0,0,.977,1.055,2.609,2.609,0,0,0,1.2.492l241.925,30.289a4.651,4.651,0,0,0,2.046-.192,4.466,4.466,0,0,0,1.677-1.01,4.865,4.865,0,0,0,1.135-1.669,5.664,5.664,0,0,0,.418-2.165V274.562a5.8,5.8,0,0,0-.418-2.184,5.181,5.181,0,0,0-1.135-1.721,4.7,4.7,0,0,0-3.723-1.373Z" transform="translate(-299.846 -162.259)" fill="#cbcbcb"/>
    <path id="Path_7-2" data-name="Path 7" d="M52.59,550.1h7.274l3.46-28.056H52.589Z" transform="translate(-6.695 -66.459)" fill="#ffb6b6"/>
    <path id="Path_8-2" data-name="Path 8" d="M349.472,698.981H363.8a9.129,9.129,0,0,1,9.129,9.128v.3H349.472Z" transform="translate(-305.432 -217.711)" fill="#2f2e41"/>
    <path id="Path_9-2" data-name="Path 9" d="M129.414,561.1h7.274l3.46-28.056H129.413Z" transform="translate(-16.475 -67.86)" fill="#ffb6b6"/>
    <path id="Path_10-2" data-name="Path 10" d="M426.3,709.981h14.325a9.129,9.129,0,0,1,9.129,9.128v.3H426.3Z" transform="translate(-315.212 -219.111)" fill="#2f2e41"/>
    <path id="Path_11-2" data-name="Path 11" d="M113.466,306.919l4.747,30.259-45.092.593L79.053,308.7Z" transform="translate(-9.309 -39.072)" fill="#ffb6b6"/>
    <path id="Path_12" data-name="Path 12" d="M413.012,480.631l14.361,38.241,1.78,158.474H416.989L387.917,550.021l-26.7,114.4H349.353l8.306-129.828s-2.449-27.985,10.086-44.5l3.051-8.815Z" transform="translate(-305.417 -189.914)" fill="#1d242b"/>
    <path id="Path_13" data-name="Path 13" d="M350.052,503.45a8.9,8.9,0,0,0,5.7-12.4l19.183-62.54-14.11-2.8-17.544,61.3a8.949,8.949,0,0,0,6.768,16.435Z" transform="translate(-304.06 -182.922)" fill="#ffb6b6"/>
    <path id="Path_14" data-name="Path 14" d="M379.034,463.847a4.04,4.04,0,0,1-.784-.077h0A4.055,4.055,0,0,1,375,460.1c-.446-6.107-2.656-16.736-6.569-31.595a25.006,25.006,0,0,1,39.486-26.112,24.683,24.683,0,0,1,9.523,16.88c1.945,17.125-1.721,34.318-3.388,40.915a4.064,4.064,0,0,1-3.852,3.061l-31.083.6Z" transform="translate(-307.742 -179.288)" fill="#3f3d56"/>
    <path id="Path_15" data-name="Path 15" d="M471.7,409.881a8.717,8.717,0,0,0-.459,1.294L432.339,424.4l-7.518-6.568-11.395,10.05,12.179,12.92a6.629,6.629,0,0,0,7.839,1.356l41.633-21.266a8.7,8.7,0,1,0-3.372-11.009Z" transform="translate(-313.574 -180.257)" fill="#ffb6b6"/>
    <path id="Path_16" data-name="Path 16" d="M428.81,424.972,414.627,437.36a3.729,3.729,0,0,1-5.59-.793l-10.145-15.8a10.355,10.355,0,0,1,15.638-13.578l14.246,12.135a3.729,3.729,0,0,1,.034,5.646Z" transform="translate(-311.401 -180.11)" fill="#3f3d56"/>
    <path id="Path_17" data-name="Path 17" d="M374.755,442.156l-17.527-6.886a3.729,3.729,0,0,1-1.87-5.327l9.352-16.28a10.355,10.355,0,1,1,19.254,7.629l-4.212,18.234a3.729,3.729,0,0,1-5,2.63Z" transform="translate(-306.118 -180.555)" fill="#3f3d56"/>
    <circle id="Ellipse_1-2" data-name="Ellipse 1" cx="19.065" cy="19.065" r="19.065" transform="translate(62.564 175.91)" fill="#ffb6b6"/>
    <path id="Path_18" data-name="Path 18" d="M417.376,361.214H387.1v-13.2c6.645-2.64,13.147-4.885,17.077,0a13.2,13.2,0,0,1,13.2,13.2Z" transform="translate(-310.222 -172.664)" fill="#1d242b"/>
    <circle id="Ellipse_2-2" data-name="Ellipse 2" cx="21.817" cy="21.817" r="21.817" transform="translate(53.317 171.095)" fill="#1d242b"/>
    <circle id="Ellipse_3-2" data-name="Ellipse 3" cx="13.963" cy="13.963" r="13.963" transform="translate(45.463 162.368)" fill="#1d242b"/>
  </g>
</svg>
