<svg width="31" height="29" viewBox="0 0 31 29" fill="none" xmlns="http://www.w3.org/2000/svg">
<path d="M11.2857 28C11.9958 28 12.5714 27.4244 12.5714 26.7143C12.5714 26.0042 11.9958 25.4286 11.2857 25.4286C10.5756 25.4286 10 26.0042 10 26.7143C10 27.4244 10.5756 28 11.2857 28Z" stroke="#1D242B" stroke-width="2" stroke-linecap="round" stroke-linejoin="round"/>
<path d="M25.4286 28C26.1386 28 26.7143 27.4244 26.7143 26.7143C26.7143 26.0042 26.1386 25.4286 25.4286 25.4286C24.7185 25.4286 24.1429 26.0042 24.1429 26.7143C24.1429 27.4244 24.7185 28 25.4286 28Z" stroke="#1D242B" stroke-width="2" stroke-linecap="round" stroke-linejoin="round"/>
<path d="M1 1H6.14286L9.58857 18.2157C9.70614 18.8077 10.0282 19.3394 10.4983 19.7178C10.9684 20.0962 11.5566 20.2973 12.16 20.2857H24.6571C25.2605 20.2973 25.8488 20.0962 26.3189 19.7178C26.789 19.3394 27.111 18.8077 27.2286 18.2157L29.2857 7.42857" stroke="#1D242B" stroke-width="2" stroke-linecap="round" stroke-linejoin="round"/>
</svg>
