<svg xmlns="http://www.w3.org/2000/svg" xmlns:xlink="http://www.w3.org/1999/xlink" width="500" height="411" viewBox="0 0 500 411">
  <defs>
    <clipPath id="clip-contact">
      <rect width="500" height="411"/>
    </clipPath>
  </defs>
  <g id="contact" clip-path="url(#clip-contact)">
    <rect width="500" height="411" fill="#fff"/>
    <g id="undraw_personal_email_re_4lx7" transform="translate(0 0)">
      <path id="Path_1" data-name="Path 1" d="M363.675,751.016l1.017,21.436h0a13.677,13.677,0,0,1-13.013,14.308l-.444.021-1.665-35.1Z" transform="translate(-240.261 -376.91)" fill="#1d242b"/>
      <path id="Path_2" data-name="Path 2" d="M855.187,527.495a246.388,246.388,0,0,1-39.545,56.634c-.364.394-.731.777-1.1,1.168l-38.821-18.378c.237-.395.5-.837.778-1.322,16.676-28.532,117.34-202.579,114.159-242C891.026,326.848,902.956,434.366,855.187,527.495Z" transform="translate(-427 -189.614)" fill="#e6e6e6"/>
      <path id="Path_3" data-name="Path 3" d="M836.1,701.916c-.543.309-1.1.611-1.661.9l-29.122-13.787c.407-.289.881-.63,1.427-1.015,8.922-6.406,35.452-25.625,61.412-46.281,27.9-22.2,55.142-46.047,59.188-57.431C926.521,586.916,900.988,666.27,836.1,701.916Z" transform="translate(-439.971 -303.857)" fill="#e6e6e6"/>
      <circle id="Ellipse_1" data-name="Ellipse 1" cx="44.944" cy="44.944" r="44.944" transform="translate(3.5 319.13)" fill="#0077c0"/>
      <path id="Path_4" data-name="Path 4" d="M240.509,699.586H204.5a6.008,6.008,0,0,0-6,6v25.718a6.008,6.008,0,0,0,6,6h36.006a6.008,6.008,0,0,0,6-6V705.587a6.008,6.008,0,0,0-6-6Zm0,3.429a2.56,2.56,0,0,1,.637.083l-18.636,14.866-18.527-14.9a2.58,2.58,0,0,1,.52-.053Zm0,30.862H204.5a2.575,2.575,0,0,1-2.572-2.572V705.818l19.5,15.679a1.715,1.715,0,0,0,2.143,0l19.506-15.56v25.364a2.575,2.575,0,0,1-2.572,2.571Z" transform="translate(-174.063 -354.373)" fill="#fff"/>
      <path id="Path_5" data-name="Path 5" d="M505.679,605.582l10.056.083a7,7,0,0,0,6.965-8.107h0a7,7,0,0,0-10-5.164l-9.484,4.679-32.436,7.234-13.9-14.207L448.9,603.246l18.752,14.488Z" transform="translate(-283.787 -306.396)" fill="#ffb8b8"/>
      <path id="Path_6" data-name="Path 6" d="M491.164,732.076l-11.848,2.278c-8.093-25.51-16.861-49.669-16.861-68.354a67.522,67.522,0,0,1-42.38,22.329l1.823-28.253,13.671-7.291,20.923-9.657a15.889,15.889,0,0,1,5.823-1.44h0a15.888,15.888,0,0,1,16.524,13.356Z" transform="translate(-271.157 -328.992)" fill="#1d242b"/>
      <path id="Path_7" data-name="Path 7" d="M398.491,691.453l-4.722,3.589a14.624,14.624,0,0,1-14.417,1.879h0c-13.525-10.139-23.134-7.148-31.843,8.155-10.446-11.79-13.023-28.817-3.7-46.433l51.721,1.139,10.481-3.19Z" transform="translate(-235.217 -335.533)" fill="#1d242b"/>
      <path id="Path_8" data-name="Path 8" d="M388.014,767.423h0a13.206,13.206,0,0,1-15.629-6.585c-4.648-4.094-8.57-9.956-11.971-17.083a132.219,132.219,0,0,1-6.274-16.114,13.682,13.682,0,0,1,8.907-17.387q.327-.1.661-.183a19.574,19.574,0,0,1,23.164,12.656l9.72,27.7a13.206,13.206,0,0,1-8.089,16.834Q388.259,767.347,388.014,767.423Z" transform="translate(-241.965 -358.706)" fill="#1d242b"/>
      <path id="Path_9" data-name="Path 9" d="M362.891,764.878s11.392,12.76,13.671,20.051" transform="translate(-246.098 -382.984)" opacity="0.2"/>
      <path id="Path_10" data-name="Path 10" d="M280.862,617.251l-3.813,9.306a7,7,0,0,0,4.939,9.479h0a7,7,0,0,0,8.511-7.369l-.822-10.543,5.335-32.8,18.353-7.623-9.24-12.295L283.708,577.43Z" transform="translate(-208.254 -295.573)" fill="#ffb8b8"/>
      <path id="Path_11" data-name="Path 11" d="M388.857,605.859c-13.093,21.993-39.195,30.509-61.551,13.287,3.933-12.921,16.629-48.633,8.427-50-17.416,7.3-17.441-9.844-20.7-18.426l39.645-14.582,21.418,5.924,4.39,1.558a14.843,14.843,0,0,1,9.878,13.785C381.368,570.4,374.708,584.268,388.857,605.859Z" transform="translate(-225.127 -282.75)" fill="#0077c0"/>
      <path id="Path_12" data-name="Path 12" d="M443.1,594.841l-15.721-12.987,5.24-30.3,21.418,22.785Z" transform="translate(-274.356 -289.503)" fill="#0077c0"/>
      <path id="b82a9922-ead1-40af-af3b-f133b244cde7" d="M760.687,182.266H758.44V120.724a35.618,35.618,0,0,0-35.618-35.618H592.436a35.618,35.618,0,0,0-35.618,35.618V458.35a35.618,35.618,0,0,0,35.618,35.618H722.821a35.618,35.618,0,0,0,35.618-35.618V226.073h2.247Z" transform="translate(-331.077 -85.106)" fill="#1d242b"/>
      <path id="b2a7827b-2d2c-407d-93be-35e4c67116bc" d="M731.921,101.6H714.9a12.638,12.638,0,0,1-11.7,17.412H628.5A12.638,12.638,0,0,1,616.8,101.6H600.9a26.6,26.6,0,0,0-26.6,26.6V465.329a26.6,26.6,0,0,0,26.6,26.6H731.917a26.6,26.6,0,0,0,26.6-26.6h0V128.2a26.6,26.6,0,0,0-26.6-26.6h0Z" transform="translate(-338.74 -92.334)" fill="#fff"/>
      <circle id="e6b07811-3d0f-4972-ba4c-46b0c6566e33" cx="14.607" cy="14.607" r="14.607" transform="translate(313.292 351.543)" fill="#e6e6e6"/>
      <path id="Path_13" data-name="Path 13" d="M631.229,496.4a2.883,2.883,0,0,0,0,5.717H749.286a2.883,2.883,0,0,0,0-5.717Z" transform="translate(-362.587 -265.338)" fill="#e6e6e6"/>
      <path id="Path_14" data-name="Path 14" d="M631.229,616.405a2.883,2.883,0,0,0,0,5.717H749.286a2.883,2.883,0,0,0,0-5.717Z" transform="translate(-362.587 -317.923)" fill="#e6e6e6"/>
      <path id="Path_15" data-name="Path 15" d="M631.229,526.932a2.883,2.883,0,0,0,0,5.717h50.8a2.883,2.883,0,0,0,0-5.717Z" transform="translate(-362.587 -278.715)" fill="#e6e6e6"/>
      <path id="Path_16" data-name="Path 16" d="M631.229,556.03a2.883,2.883,0,0,0,0,5.717H749.286a2.883,2.883,0,0,0,0-5.717Z" transform="translate(-362.587 -291.466)" fill="#e6e6e6"/>
      <path id="Path_17" data-name="Path 17" d="M631.229,586.558a2.883,2.883,0,0,0,0,5.717h50.8a2.883,2.883,0,0,0,0-5.717Z" transform="translate(-362.587 -304.844)" fill="#e6e6e6"/>
      <path id="Path_18" data-name="Path 18" d="M670.465,264.733h73.491a3.066,3.066,0,0,1,3.062,3.062v76.538a3.066,3.066,0,0,1-3.062,3.062H670.465a3.066,3.066,0,0,1-3.062-3.062V267.8a3.066,3.066,0,0,1,3.062-3.062Z" transform="translate(-379.536 -163.819)" fill="#0077c0"/>
      <path id="Path_19" data-name="Path 19" d="M741.276,380.534a2.079,2.079,0,0,0,0-4.158H699.1a2.079,2.079,0,0,0,0,4.158Z" transform="translate(-392.516 -212.742)" fill="#fff"/>
      <path id="Path_20" data-name="Path 20" d="M741.276,358.732a2.079,2.079,0,1,0,0-4.158H699.1a2.079,2.079,0,0,0,0,4.158Z" transform="translate(-392.516 -203.188)" fill="#fff"/>
      <path id="Path_21" data-name="Path 21" d="M728.053,292.828a13.086,13.086,0,1,1-13.086,13.086h0A13.1,13.1,0,0,1,728.053,292.828Z" transform="translate(-400.379 -176.131)" fill="#fff"/>
      <path id="Path_22" data-name="Path 22" d="M408.411,496.163H369.563a3.017,3.017,0,0,1-3.014-3.014V476.4a22.438,22.438,0,1,1,44.876,0v16.745a3.018,3.018,0,0,1-3.014,3.014Z" transform="translate(-247.701 -246.742)" fill="#1d242b"/>
      <circle id="Ellipse_2" data-name="Ellipse 2" cx="16.451" cy="16.451" r="16.451" transform="translate(123.249 238.507) rotate(-61.337)" fill="#ffb6b6"/>
      <path id="Path_23" data-name="Path 23" d="M425.577,482.78H401.822l-.244-3.41-1.218,3.41H396.7l-.483-6.759-2.414,6.759h-7.078v-.335a17.769,17.769,0,0,1,17.749-17.75h3.349a17.77,17.77,0,0,1,17.749,17.75Z" transform="translate(-256.544 -251.443)" fill="#1d242b"/>
      <path id="Path_24" data-name="Path 24" d="M399.265,509.786a3.078,3.078,0,0,1-.534-.047l-17.394-3.069V477.923h19.148l-.474.553c-6.6,7.692-1.627,20.165,1.922,26.915a2.969,2.969,0,0,1-.236,3.153A3,3,0,0,1,399.265,509.786Z" transform="translate(-254.182 -257.24)" fill="#1d242b"/>
      <path id="Path_25" data-name="Path 25" d="M516.333,787.281h21.461a13.677,13.677,0,0,1,13.676,13.675v.445H516.333Z" transform="translate(-313.337 -392.801)" fill="#1d242b"/>
      <path id="Path_26" data-name="Path 26" d="M654.438,814.017H155.562a.562.562,0,0,1,0-1.124H654.438a.562.562,0,1,1,0,1.124Z" transform="translate(-155 -404.024)" fill="#cacaca"/>
    </g>
  </g>
</svg>
