<svg xmlns="http://www.w3.org/2000/svg" xmlns:xlink="http://www.w3.org/1999/xlink" width="640" height="520.139" viewBox="0 0 640 520.139">
  <defs>
    <clipPath id="clip-path">
      <rect id="Rectangle_1" data-name="Rectangle 1" width="640" height="520.139" transform="translate(201)" fill="#fff"/>
    </clipPath>
  </defs>
  <g id="login" transform="translate(-201)" clip-path="url(#clip-path)">
    <path id="Path_1" data-name="Path 1" d="M666.092,514.257c-11.138-9.412-17.9-24.28-16.129-38.754s12.763-27.78,27.018-30.854,30.5,5.435,34.834,19.36c2.383-26.847,5.128-54.818,19.4-77.68,12.924-20.7,35.308-35.514,59.568-38.164s49.8,7.359,64.933,26.507,18.835,46.986,8.238,68.969c-7.806,16.2-22.188,28.247-37.257,38.052A240.446,240.446,0,0,1,662.246,517.67Z" fill="#f2f2f2"/>
    <path id="Path_2" data-name="Path 2" d="M831.728,356.079A396.753,396.753,0,0,0,715.15,513.715c-1.112,2.725,3.312,3.911,4.412,1.217a392.342,392.342,0,0,1,115.4-155.618C837.248,357.454,833.993,354.234,831.728,356.079Z" fill="#fff"/>
    <path id="Path_3" data-name="Path 3" d="M52.567,294.442a540.35,540.35,0,0,1,75.3,74.777,548.056,548.056,0,0,1,59.386,87.89,545.932,545.932,0,0,1,25.43,53.847c1.527,3.742-4.55,5.371-6.06,1.67A536.405,536.405,0,0,0,157.618,419.9a539.771,539.771,0,0,0-65.729-81.2,538.5,538.5,0,0,0-43.766-39.815c-3.138-2.555,1.332-6.978,4.444-4.444Z" fill="#fff"/>
    <path id="Path_4" data-name="Path 4" d="M624.5,519h-365V144.5C259.5,64.822,324.322,0,404,0h76c79.678,0,144.5,64.822,144.5,144.5Z" fill="#f2f2f2"/>
    <path id="Path_5" data-name="Path 5" d="M548.5,519h-289V144.5a143.378,143.378,0,0,1,27.6-84.944c.663-.9,1.326-1.8,2.008-2.681a144.48,144.48,0,0,1,30.755-29.851c.659-.48,1.322-.952,1.994-1.423A144.152,144.152,0,0,1,353.325,9.142c.661-.25,1.334-.5,2.007-.742A144.007,144.007,0,0,1,386.44,1.063c.658-.09,1.333-.16,2.008-.23a146.293,146.293,0,0,1,31.106,0c.673.07,1.348.141,2.014.231a143.981,143.981,0,0,1,31.1,7.335c.673.241,1.346.492,2.009.743a143.789,143.789,0,0,1,31.106,16.216c.672.462,1.344.933,2.007,1.4a145.954,145.954,0,0,1,18.383,15.564A144.363,144.363,0,0,1,518.9,56.877c.68.88,1.342,1.773,2.005,2.677A143.383,143.383,0,0,1,548.5,144.5Z" fill="#ccc"/>
    <path id="Path_6" data-name="Path 6" d="M525,351.5a16,16,0,1,0-16-16A16,16,0,0,0,525,351.5Z" fill="#0077c0"/>
    <path id="Path_7" data-name="Path 7" d="M594.6,507.783h-12.26l-5.833-47.288h18.1Z" fill="#ffb8b8"/>
    <path id="Path_8" data-name="Path 8" d="M573.582,504.28h23.643v14.887H558.7a14.886,14.886,0,0,1,14.887-14.887Z" fill="#141414"/>
    <path id="Path_9" data-name="Path 9" d="M655.6,507.783h-12.26l-5.833-47.288h18.1Z" fill="#ffb8b8"/>
    <path id="Path_10" data-name="Path 10" d="M634.582,504.28h23.643v14.887H619.7a14.886,14.886,0,0,1,14.887-14.887Z" fill="#141414"/>
    <path id="Path_11" data-name="Path 11" d="M533.1,338.67a10.742,10.742,0,0,1,4.51-15.843L579.284,207.96l20.507,11.191L552.206,328.922A10.8,10.8,0,0,1,533.1,338.67Z" fill="#ffb8b8"/>
    <path id="Path_12" data-name="Path 12" d="M649.336,360.254a10.744,10.744,0,0,1-2.893-16.217l-12.91-121.509,23.337,1.066,5.366,119.52a10.8,10.8,0,0,1-12.9,17.14Z" fill="#ffb8b8"/>
    <path id="Path_13" data-name="Path 13" d="M612.106,186.684a24.561,24.561,0,1,0-24.561-24.561A24.562,24.562,0,0,0,612.106,186.684Z" fill="#ffb8b8"/>
    <path id="Path_14" data-name="Path 14" d="M649.18,332.619H575.133l.089-.577c.133-.861,13.2-86.439,3.562-114.436a11.811,11.811,0,0,1,6.069-14.583h0c13.772-6.485,40.208-14.471,62.52,4.909a28.24,28.24,0,0,1,9.46,23.4Z" fill="#0077c0"/>
    <path id="Path_15" data-name="Path 15" d="M589.354,258.25l-33.336-6.763,15.626-37.03a14,14,0,0,1,27.106,7Z" fill="#0077c0"/>
    <path id="Path_16" data-name="Path 16" d="M632.05,270.808l-2-45.941c-1.52-8.637,3.424-16.8,11.028-18.135s15.031,4.66,16.558,13.36l7.533,42.928Z" fill="#0077c0"/>
    <path id="Path_17" data-name="Path 17" d="M646.716,327.119c11.915,45.376,13.214,103.069,10,166l-16-2-29-120-16,122-18-1c-5.377-66.03-10.613-122.716-2-160Z" fill="#1d242b"/>
    <path id="Path_18" data-name="Path 18" d="M628.289,181.1c-4.582,4.881-13.091,2.261-13.688-4.407a8.008,8.008,0,0,1,.01-1.556c.308-2.953,2.014-5.635,1.606-8.753a4.6,4.6,0,0,0-.84-2.149c-3.652-4.89-12.223,2.187-15.669-2.24-2.113-2.714.371-6.987-1.25-10.02-2.14-4-8.479-2.029-12.454-4.221-4.423-2.44-4.158-9.226-1.247-13.353,3.551-5.034,9.776-7.72,15.923-8.107s12.253,1.275,17.993,3.512c6.521,2.541,12.987,6.053,17,11.787,4.881,6.974,5.35,16.348,2.91,24.5C637.1,171.059,632.031,177.118,628.289,181.1Z" fill="#141414"/>
    <path id="Path_19" data-name="Path 19" d="M839.974,520H202.026a.907.907,0,0,1-.726-.441,2.019,2.019,0,0,1,0-2.118.907.907,0,0,1,.726-.441H839.974a.907.907,0,0,1,.726.441,2.019,2.019,0,0,1,0,2.118.907.907,0,0,1-.726.441Z" fill="#19282f"/>
    <path id="Path_20" data-name="Path 20" d="M469,410.5H339a6.467,6.467,0,0,1-6.5-6.415V113.915A6.467,6.467,0,0,1,339,107.5H469a6.467,6.467,0,0,1,6.5,6.415v290.17A6.467,6.467,0,0,1,469,410.5Z" fill="#fff"/>
    <path id="Path_21" data-name="Path 21" d="M475.5,201.39h-143v2h143Z" fill="#ccc"/>
    <path id="Path_22" data-name="Path 22" d="M476,315.5H333v2H476Z" fill="#ccc"/>
    <path id="Path_23" data-name="Path 23" d="M379.5,107.5h-2v304h2Z" fill="#ccc"/>
    <path id="Path_24" data-name="Path 24" d="M429.5,107.5h-2v304h2Z" fill="#ccc"/>
  </g>
</svg>
