<svg width="73" height="61" viewBox="0 0 73 61" fill="none" xmlns="http://www.w3.org/2000/svg">
<path d="M20 36C20 34.8954 20.8954 34 22 34H44V38H22C20.8954 38 20 37.1046 20 36Z" fill="#0077C0"/>
<path d="M35.4725 49.1316H15.8047C14.8546 50.0218 14.6606 50.4543 14.6178 51.1662C14.706 52.1038 15.0302 52.5732 15.8048 53.3703H36.3203C37.561 53.0838 38.01 52.7226 38.5244 51.8444L59.3788 8.60974H72.0948C73.237 7.2615 73.3648 6.42729 72.0948 4.71014H58.531C57.3963 4.73463 56.9063 4.95252 56.3269 5.72743L35.4725 49.1316Z" fill="#1D242B"/>
<path d="M15.1264 46.758H32.4203C33.1073 46.487 33.432 46.2056 33.9462 45.5712C34.1706 44.8428 34.2161 44.4345 33.9462 43.7061C33.6263 43.0539 33.2925 42.7939 32.4203 42.5193H15.8046L5.97082 28.1077H56.496C57.7458 27.5453 58.2353 27.1089 58.3611 25.9036C57.9822 24.5998 57.6142 24.1239 56.496 24.0386H1.56258C-0.0482144 24.4577 -0.235276 25.1604 0.206195 26.9209L12.4136 44.5539C13.2532 45.782 13.9057 46.1665 15.1264 46.758Z" fill="#1D242B"/>
<path d="M6.5127 11.5308C6.5127 12.3475 6.21647 12.9844 5.62402 13.4414C5.03158 13.8984 4.22754 14.127 3.21191 14.127C2.11165 14.127 1.2653 13.9852 0.672852 13.7017V12.6606C1.05371 12.8215 1.46842 12.9484 1.91699 13.0415C2.36556 13.1346 2.8099 13.1812 3.25 13.1812C3.9694 13.1812 4.51107 13.0457 4.875 12.7749C5.23893 12.4998 5.4209 12.119 5.4209 11.6323C5.4209 11.3107 5.35531 11.0483 5.22412 10.8452C5.09717 10.6379 4.88135 10.4474 4.57666 10.2739C4.2762 10.1004 3.81706 9.90365 3.19922 9.68359C2.33594 9.37467 1.7181 9.00863 1.3457 8.58545C0.977539 8.16227 0.793457 7.61003 0.793457 6.92871C0.793457 6.21354 1.06217 5.64437 1.59961 5.22119C2.13704 4.79801 2.84798 4.58643 3.73242 4.58643C4.65495 4.58643 5.50342 4.7557 6.27783 5.09424L5.94141 6.03369C5.17546 5.71208 4.43066 5.55127 3.70703 5.55127C3.13574 5.55127 2.68929 5.67399 2.36768 5.91943C2.04606 6.16488 1.88525 6.50553 1.88525 6.94141C1.88525 7.26302 1.9445 7.52751 2.06299 7.73486C2.18148 7.93799 2.38037 8.1263 2.65967 8.2998C2.9432 8.46908 3.37484 8.65739 3.95459 8.86475C4.9279 9.21175 5.59652 9.58415 5.96045 9.98193C6.32861 10.3797 6.5127 10.896 6.5127 11.5308ZM11.149 13.2573C11.3352 13.2573 11.5151 13.2446 11.6886 13.2192C11.8621 13.1896 11.9996 13.16 12.1012 13.1304V13.9365C11.9869 13.9915 11.8176 14.036 11.5934 14.0698C11.3733 14.1079 11.1744 14.127 10.9967 14.127C9.65098 14.127 8.97813 13.4181 8.97813 12.0005V7.86182H7.98154V7.354L8.97813 6.91602L9.42246 5.43066H10.0318V7.04297H12.0504V7.86182H10.0318V11.9561C10.0318 12.375 10.1313 12.6966 10.3302 12.9209C10.5291 13.1452 10.802 13.2573 11.149 13.2573ZM20.1525 10.5151C20.1525 11.6493 19.8669 12.5358 19.2956 13.1748C18.7243 13.8096 17.9351 14.127 16.9279 14.127C16.3059 14.127 15.7536 13.981 15.2712 13.689C14.7888 13.397 14.4164 12.978 14.154 12.4321C13.8916 11.8862 13.7604 11.2472 13.7604 10.5151C13.7604 9.38102 14.044 8.4987 14.611 7.86816C15.1781 7.2334 15.9652 6.91602 16.9724 6.91602C17.9457 6.91602 18.718 7.23975 19.2893 7.88721C19.8648 8.53467 20.1525 9.41064 20.1525 10.5151ZM14.8522 10.5151C14.8522 11.4038 15.03 12.0809 15.3854 12.5464C15.7409 13.0119 16.2635 13.2446 16.9533 13.2446C17.6431 13.2446 18.1657 13.014 18.5212 12.5527C18.8809 12.0872 19.0607 11.408 19.0607 10.5151C19.0607 9.6307 18.8809 8.95996 18.5212 8.50293C18.1657 8.04167 17.6389 7.81104 16.9406 7.81104C16.2508 7.81104 15.7303 8.03743 15.3791 8.49023C15.0279 8.94303 14.8522 9.618 14.8522 10.5151ZM25.8299 6.91602C26.1388 6.91602 26.416 6.94141 26.6614 6.99219L26.5154 7.96973C26.2277 7.90625 25.9738 7.87451 25.7537 7.87451C25.1909 7.87451 24.7085 8.10303 24.3064 8.56006C23.9087 9.01709 23.7098 9.58626 23.7098 10.2676V14H22.6561V7.04297H23.5257L23.6463 8.33154H23.6971C23.9552 7.87874 24.2662 7.52962 24.6302 7.28418C24.9941 7.03874 25.394 6.91602 25.8299 6.91602ZM31.5517 14.127C30.5233 14.127 29.7108 13.8138 29.1142 13.1875C28.5217 12.5612 28.2255 11.6916 28.2255 10.5786C28.2255 9.45719 28.5006 8.56641 29.0507 7.90625C29.605 7.24609 30.3477 6.91602 31.2787 6.91602C32.1505 6.91602 32.8402 7.20378 33.348 7.7793C33.8559 8.35059 34.1098 9.10596 34.1098 10.0454V10.7119H29.3173C29.3384 11.5286 29.5437 12.1486 29.933 12.5718C30.3266 12.995 30.8788 13.2065 31.5897 13.2065C32.3388 13.2065 33.0793 13.05 33.8114 12.7368V13.6763C33.439 13.8371 33.0857 13.9513 32.7514 14.019C32.4213 14.091 32.0214 14.127 31.5517 14.127ZM31.266 7.79834C30.7074 7.79834 30.261 7.98031 29.9267 8.34424C29.5966 8.70817 29.4019 9.21175 29.3427 9.85498H32.9799C32.9799 9.19059 32.8318 8.68278 32.5355 8.33154C32.2393 7.97607 31.8161 7.79834 31.266 7.79834Z" fill="#0077C0"/>
</svg>
