<svg xmlns="http://www.w3.org/2000/svg" width="130.706" height="74.333" viewBox="0 0 130.706 74.333">
  <g id="Group_13" data-name="Group 13" transform="translate(-817 -544.032)">
    <g id="logo" transform="translate(836.192 544.032)">
      <path id="Path_4" data-name="Path 4" d="M20,37.055A3.055,3.055,0,0,1,23.055,34H56.662v6.11H23.055A3.055,3.055,0,0,1,20,37.055Z" transform="translate(10.552 10.743)" fill="#0077c0"/>
      <path id="Path_5" data-name="Path 5" d="M46.475,72.568H16.431c-1.451,1.36-1.748,2.021-1.813,3.108a4.932,4.932,0,0,0,1.813,3.367H47.77a4.305,4.305,0,0,0,3.367-2.331L82.994,10.667h19.425c1.745-2.06,1.94-3.334,0-5.957H81.7c-1.733.037-2.482.37-3.367,1.554Z" transform="translate(7.712 -4.71)" fill="#1d242b"/>
      <path id="Path_6" data-name="Path 6" d="M23.107,58.745H49.525a4.95,4.95,0,0,0,2.331-1.813,3.725,3.725,0,0,0,0-2.849,3.152,3.152,0,0,0-2.331-1.813H24.143L9.121,30.255H86.3c1.909-.859,2.657-1.526,2.849-3.367-.579-1.992-1.141-2.719-2.849-2.849H2.387c-2.461.64-2.746,1.714-2.072,4.4L18.963,55.378A8.677,8.677,0,0,0,23.107,58.745Z" transform="translate(0 5.487)" fill="#1d242b"/>
    </g>
    <g id="Group_11" data-name="Group 11" transform="translate(817 546.224)">
      <text id="Warehouse" transform="translate(0 18.14)" fill="#0077c0" font-size="17" font-family="SegoeUI, Segoe UI" letter-spacing="0.004em"><tspan x="0" y="0">Warehouse</tspan></text>
    </g>
  </g>
</svg>
