<svg xmlns="http://www.w3.org/2000/svg" xmlns:xlink="http://www.w3.org/1999/xlink" width="500" height="380" viewBox="0 0 500 380"><defs><clipPath id="b"><rect width="500" height="380"/></clipPath></defs><g id="a" clip-path="url(#b)"><rect width="500" height="380" fill="#fff"/><g transform="translate(56.255 30)"><circle cx="22.131" cy="22.131" r="22.131" transform="translate(51.382 13.486)" fill="#ff6584"/><path d="M301.321,179.69c0,52.218-31.043,70.451-69.336,70.451s-69.336-18.233-69.336-70.451S231.985,61.042,231.985,61.042,301.321,127.472,301.321,179.69Z" transform="translate(-120.136 -61.042)" fill="#f2f2f2"/><path d="M263.432,181.111l.71-43.7L293.7,83.343l-29.441,47.21.319-19.65,20.368-39.116L264.658,105.7h0l.574-35.342,21.81-31.141L265.322,64.8,265.681,0l-2.255,85.789.185-3.539L241.437,48.308l21.819,40.735-2.066,39.47-.062-1.047L235.565,91.748l25.486,39.42-.258,4.936-.046.074.021.405-5.242,100.14h7L263.37,185l25.423-39.323Z" transform="translate(-154.109)" fill="#1d242b"/><path d="M945.546,282.271c0,42.743-25.41,57.667-56.755,57.667s-56.755-14.924-56.755-57.667,56.754-97.119,56.754-97.119S945.546,239.528,945.546,282.271Z" transform="translate(-558.056 -142.236)" fill="#f2f2f2"/><path d="M907.325,272.358l.581-35.772L932.1,192.331,908,230.974l.261-16.084,16.673-32.018-16.6,27.762h0l.47-28.929,17.853-25.491-17.779,20.942.294-53.045-1.846,70.222.152-2.9L889.32,163.652,907.18,197,905.489,229.3l-.051-.858L884.514,199.21l20.862,32.267-.212,4.041-.038.061.017.332-4.291,81.969h5.733l.688-42.339,20.809-32.188Z" transform="translate(-578.658 -81.194)" fill="#1d242b"/><ellipse cx="191.772" cy="9.694" rx="191.772" ry="9.694" transform="translate(0 225.608)" fill="#1d242b"/><ellipse cx="32.846" cy="1.66" rx="32.846" ry="1.66" transform="translate(275.752 249.658)" fill="#1d242b"/><ellipse cx="32.846" cy="1.66" rx="32.846" ry="1.66" transform="translate(156.895 265.674)" fill="#1d242b"/><ellipse cx="75.041" cy="3.793" rx="75.041" ry="3.793" transform="translate(24.527 250.112)" fill="#1d242b"/><circle cx="27.317" cy="27.317" r="27.317" transform="translate(6.253 168.493)" fill="#1d242b"/><rect width="8.299" height="14.869" transform="translate(20.871 217.1) rotate(0.675)" fill="#2f2e41"/><rect width="8.299" height="14.869" transform="translate(37.468 217.296) rotate(0.675)" fill="#2f2e41"/><ellipse cx="2.593" cy="6.916" rx="2.593" ry="6.916" transform="translate(20.662 234.734) rotate(-89.325)" fill="#2f2e41"/><ellipse cx="2.593" cy="6.916" rx="2.593" ry="6.916" transform="translate(37.263 234.584) rotate(-89.325)" fill="#2f2e41"/><circle cx="9.336" cy="9.336" r="9.336" transform="translate(25.007 179.567)" fill="#fff"/><circle cx="3.112" cy="3.112" r="3.112" transform="translate(31.231 185.791)" fill="#3f3d56"/><path d="M60.341,510.2c-2.089-9.9,5.079-19.8,16.01-22.108s21.487,3.853,23.576,13.757-5.179,13.462-16.111,15.768S62.43,520.108,60.341,510.2Z" transform="translate(-52.968 -340.109)" fill="#0077c0"/><path d="M161.611,589.516c0,19.045-11.321,25.694-25.288,25.694q-.485,0-.969-.011c-.647-.014-1.288-.045-1.921-.088-12.6-.892-22.4-7.884-22.4-25.6,0-18.33,23.423-41.459,25.183-43.171l0,0,.1-.1S161.611,570.471,161.611,589.516Z" transform="translate(-86.37 -378.466)" fill="#0077c0"/><path d="M162.272,612.3l9.249-12.923-9.272,14.342-.025,1.484c-.647-.014-1.288-.045-1.921-.088l1-19.054-.008-.148.017-.028.094-1.8-9.3-14.378,9.324,13.028.022.382.753-14.4-7.958-14.857,8.055,12.33.784-29.847,0-.1v.1l-.131,23.536,7.922-9.331-7.955,11.358-.21,12.89,7.4-12.37-7.428,14.267-.117,7.166L173.31,576.64l-10.779,19.718Z" transform="translate(-113.24 -378.466)" fill="#3f3d56"/><circle cx="27.317" cy="27.317" r="27.317" transform="translate(219.052 168.197)" fill="#1d242b"/><rect width="8.299" height="14.869" transform="matrix(0.956, -0.294, 0.294, 0.956, 240.768, 219.666)" fill="#2f2e41"/><rect width="8.299" height="14.869" transform="matrix(0.956, -0.294, 0.294, 0.956, 256.634, 214.79)" fill="#2f2e41"/><ellipse cx="6.916" cy="2.593" rx="6.916" ry="2.593" transform="matrix(0.956, -0.294, 0.294, 0.956, 244.425, 231.565)" fill="#2f2e41"/><ellipse cx="6.916" cy="2.593" rx="6.916" ry="2.593" transform="matrix(0.956, -0.294, 0.294, 0.956, 260.189, 226.359)" fill="#2f2e41"/><circle cx="9.336" cy="9.336" r="9.336" transform="translate(235.663 179.364)" fill="#fff"/><circle cx="3.112" cy="3.112" r="3.112" transform="translate(241.887 185.589)" fill="#3f3d56"/><path d="M653.179,524.2c-5.01-8.794-1.2-20.407,8.5-25.937s21.638-2.884,26.648,5.911-.827,14.4-10.534,19.93S658.189,533,653.179,524.2Z" transform="translate(-439.602 -345.189)" fill="#0077c0"/><path d="M523.462,586.148c0,17.482-10.392,23.586-23.213,23.586q-.445,0-.89-.01c-.594-.013-1.182-.041-1.764-.081-11.57-.819-20.56-7.237-20.56-23.5,0-16.826,21.5-38.057,23.117-39.629l0,0,.093-.09S523.462,568.666,523.462,586.148Z" transform="translate(-325.811 -378.585)" fill="#0077c0"/><path d="M524.068,607.059l8.49-11.863-8.511,13.166-.022,1.362c-.594-.012-1.183-.041-1.764-.08l.915-17.49-.007-.136.016-.026.086-1.652-8.532-13.2L523.3,589.1l.02.351.692-13.215L516.7,562.6l7.394,11.319.72-27.4,0-.093v.09l-.12,21.6,7.273-8.565-7.3,10.427-.192,11.832,6.79-11.355-6.818,13.1-.107,6.578,9.858-15.8-9.894,18.1Z" transform="translate(-350.476 -378.585)" fill="#3f3d56"/><path d="M779.611,600.516c0,19.045-11.321,25.694-25.288,25.694q-.485,0-.969-.011c-.647-.014-1.288-.045-1.922-.088-12.6-.892-22.4-7.884-22.4-25.6,0-18.33,23.423-41.459,25.183-43.171l0,0,.1-.1S779.611,581.471,779.611,600.516Z" transform="translate(-490.672 -385.663)" fill="#0077c0"/><path d="M780.272,623.3l9.249-12.923-9.272,14.342-.025,1.484c-.647-.014-1.288-.045-1.921-.088l1-19.054-.008-.148.017-.028.094-1.8-9.3-14.378,9.324,13.028.022.382.753-14.4-7.958-14.857,8.055,12.33.784-29.847,0-.1v.1l-.131,23.536,7.922-9.331-7.955,11.358-.21,12.89,7.4-12.37-7.428,14.267-.117,7.166,10.739-17.217-10.779,19.718Z" transform="translate(-517.542 -385.663)" fill="#3f3d56"/><ellipse cx="4.288" cy="13.659" rx="4.288" ry="13.659" transform="translate(221.586 204.035) rotate(-64.626)" fill="#2f2e41"/><ellipse cx="4.288" cy="13.659" rx="4.288" ry="13.659" transform="translate(10.905 203.183) rotate(-68.159)" fill="#2f2e41"/></g><text transform="translate(144.255 342)" fill="#1d242b" font-size="30" font-family="SegoeUI, Segoe UI"><tspan x="0" y="0">No Items Found!</tspan></text></g></svg>