<svg xmlns="http://www.w3.org/2000/svg" xmlns:xlink="http://www.w3.org/1999/xlink" width="500" height="332" viewBox="0 0 500 332">
  <defs>
    <clipPath id="clip-pagenotfount">
      <rect width="500" height="332"/>
    </clipPath>
  </defs>
  <g id="pagenotfount" clip-path="url(#clip-pagenotfount)">
    <rect width="500" height="332" fill="#fff"/>
    <g id="undraw_page_not_found_re_e9o6" transform="translate(-0.005)">
      <path id="Path_1" data-name="Path 1" d="M520.819,311.7c-4.458-7.374-9.741-15.246-18.014-17.654-9.581-2.788-19.423,2.751-27.772,8.216a809.263,809.263,0,0,0-72.02,53.063l.025.286,53.742-3.706c12.943-.893,26.331-1.908,37.769-8.031,4.34-2.323,8.571-5.427,13.49-5.643,6.111-.269,11.439,4,15.626,8.458,24.768,26.374,31.935,66.707,59.722,89.879A881.835,881.835,0,0,0,520.819,311.7Z" transform="translate(-267.521 -218.385)" fill="#f2f2f2"/>
      <path id="Path_2" data-name="Path 2" d="M630.226,523.008c-2.739-3.458-3.858-4.269-6.56-7.759q-33-42.677-62.03-88.238-19.72-30.943-37.484-63.074-8.457-15.276-16.451-30.791-6.2-12.03-12.129-24.2c-1.13-2.318-2.228-4.647-3.32-6.981-2.574-5.489-5.1-11-7.812-16.419-3.091-6.171-6.853-12.64-12.529-16.786a17.094,17.094,0,0,0-8.9-3.427c-4.62-.3-8.883,1.609-12.891,3.693a414.971,414.971,0,0,0-81.6,56.269,424.806,424.806,0,0,0-66.293,73.588c-.586.837-1.972.037-1.38-.8q3.493-4.94,7.125-9.773a427.155,427.155,0,0,1,109.053-101.72q10.608-6.874,21.614-13.1c3.7-2.094,7.413-4.162,11.191-6.1,3.7-1.9,7.637-3.613,11.868-3.677,14.4-.224,21.854,16.083,26.976,27.055q2.414,5.18,4.887,10.328,9.345,19.544,19.408,38.731,6.211,11.846,12.694,23.554,20.175,36.459,42.888,71.441c20.058,30.892,39.957,58.182,62.808,87.071C631.984,522.678,630.86,523.818,630.226,523.008Z" transform="translate(-224.683 -205.99)" fill="#e4e4e4"/>
      <path id="Path_3" data-name="Path 3" d="M321.768,336.794c-.837-.933-1.668-1.865-2.51-2.8-6.64-7.343-13.765-14.6-22.883-18.811a33.2,33.2,0,0,0-13.909-3.224,39.693,39.693,0,0,0-14.441,3.15c-2.174.869-4.3,1.854-6.395,2.9-2.393,1.2-4.743,2.489-7.082,3.784q-6.587,3.645-13,7.61-12.766,7.89-24.732,16.984-6.2,4.716-12.15,9.741-5.531,4.668-10.839,9.587c-.757.7-1.886-.432-1.13-1.13.933-.869,1.876-1.732,2.819-2.585q4-3.613,8.122-7.088,7.522-6.347,15.433-12.2,12.3-9.113,25.451-16.989,6.571-3.933,13.323-7.535c1.359-.725,2.734-1.434,4.125-2.1a65.757,65.757,0,0,1,9.805-3.991,34.882,34.882,0,0,1,14.809-1.455,38.557,38.557,0,0,1,13.664,4.727c8.953,5,15.9,12.742,22.654,20.293C323.58,336.426,322.456,337.561,321.768,336.794Z" transform="translate(-179.357 -225.544)" fill="#e4e4e4"/>
      <path id="Path_4" data-name="Path 4" d="M729.779,474.013l21.453-7.846,10.651-3.9a108.912,108.912,0,0,1,10.516-3.622,16.59,16.59,0,0,1,9.518.121,21.936,21.936,0,0,1,7.424,4.6,60.246,60.246,0,0,1,6.089,6.5c2.319,2.787,4.6,5.6,6.9,8.41q14.208,17.376,28.23,34.9t27.856,35.2q13.868,17.718,27.546,35.585,1.676,2.189,3.348,4.38c.616.807,2.005.011,1.38-.807Q876.911,569.5,862.94,551.6q-14-17.941-28.2-35.73t-28.588-35.423q-3.585-4.393-7.182-8.777c-2.023-2.465-4.023-4.957-6.241-7.251-4.072-4.212-9.16-7.934-15.25-8.035-3.581-.059-7.046,1.077-10.373,2.28-3.587,1.3-7.164,2.619-10.746,3.929l-21.6,7.9-5.4,1.975c-.958.351-.544,1.9.425,1.542Z" transform="translate(-403.93 -286.666)" fill="#e4e4e4"/>
      <path id="Path_5" data-name="Path 5" d="M341.253,331.951a34.634,34.634,0,0,0-34.881,2.495,497.5,497.5,0,0,1,56.6,13.211C355.253,343.132,349.213,336.043,341.253,331.951Z" transform="translate(-227.058 -233.071)" fill="#f2f2f2"/>
      <path id="Path_6" data-name="Path 6" d="M304.676,338.784l-2.1,1.706c.71-.6,1.448-1.157,2.206-1.687Z" transform="translate(-225.469 -237.429)" fill="#f2f2f2"/>
      <path id="Path_7" data-name="Path 7" d="M823.984,482.3c-2.112-2.571-4.4-5.262-7.554-6.306l-2.949.116a334.5,334.5,0,0,0,89.1,101.857Z" transform="translate(-439.381 -294.879)" fill="#f2f2f2"/>
      <path id="Path_8" data-name="Path 8" d="M514.66,450.367a21.788,21.788,0,0,0,8.68,12.183c1.639,1.116,3.579,2.187,4.14,4.089a4.87,4.87,0,0,1-.508,3.575,14.459,14.459,0,0,1-2.245,2.931l-.079.3c-4.068-2.411-7.938-5.46-10.186-9.621s-2.561-9.614.2-13.455" transform="translate(-313.439 -284.147)" fill="#f2f2f2"/>
      <path id="Path_9" data-name="Path 9" d="M747.66,653.367a21.787,21.787,0,0,0,8.679,12.183c1.639,1.116,3.579,2.187,4.14,4.089a4.871,4.871,0,0,1-.508,3.575,14.465,14.465,0,0,1-2.245,2.93l-.079.3c-4.068-2.411-7.938-5.461-10.186-9.621s-2.561-9.614.2-13.455" transform="translate(-410.995 -369.142)" fill="#f2f2f2"/>
      <path id="Path_10" data-name="Path 10" d="M282.66,639.367a21.788,21.788,0,0,0,8.679,12.183c1.639,1.116,3.579,2.187,4.14,4.089a4.87,4.87,0,0,1-.508,3.575,14.466,14.466,0,0,1-2.245,2.931l-.079.3c-4.068-2.411-7.939-5.461-10.186-9.621s-2.561-9.614.2-13.455" transform="translate(-216.302 -363.28)" fill="#f2f2f2"/>
      <circle id="Ellipse_1" data-name="Ellipse 1" cx="29.647" cy="29.647" r="29.647" transform="translate(347.768)" fill="#0077c0"/>
      <path id="Path_11" data-name="Path 11" d="M869.168,176.084c-14.368-1.942-30.771,5.824-34.5,19.836a12.554,12.554,0,0,0-23.888,1.226l1.645,1.178a216.406,216.406,0,0,0,93.392-.422C895.826,187.4,883.535,178.026,869.168,176.084Z" transform="translate(-438.252 -169.183)" fill="#f0f0f0"/>
      <path id="Path_12" data-name="Path 12" d="M763.168,244.084c-14.368-1.942-30.772,5.824-34.5,19.836a12.554,12.554,0,0,0-23.888,1.226l1.645,1.178a216.4,216.4,0,0,0,93.392-.422C789.826,255.4,777.535,246.026,763.168,244.084Z" transform="translate(-393.87 -197.655)" fill="#f0f0f0"/>
      <path id="Path_13" data-name="Path 13" d="M668.035,228.654a.572.572,0,0,1-.175-.027c-153.7-48.608-289.171-42.251-375.747-28.36-11.782,1.89-23.6,4.073-35.113,6.488-2.94.616-5.991,1.276-9.066,1.964-3.673.818-7.3,1.66-10.773,2.5q-2.251.533-4.415,1.075c-2.185.539-4.4,1.1-6.778,1.719-2.655.685-5.353,1.4-8.021,2.134l-.03.009h0c-3.013.823-6.01,1.669-8.907,2.514-1.568.453-3.083.9-4.534,1.341-.162.045-.306.088-.451.132l-.312.095c-.181.055-.359.109-.537.16l-.011,0h0l-.472.146c-.563.17-1.112.337-1.651.5-14.268,4.4-22.112,7.527-22.189,7.558a.581.581,0,1,1-.433-1.079c.078-.031,7.96-3.176,22.28-7.59.542-.166,1.092-.333,1.656-.5l.438-.136.045-.015c.177-.051.355-.1.534-.159l.312-.095c.156-.047.309-.094.466-.137,1.441-.438,2.96-.886,4.533-1.341,2.9-.846,5.9-1.692,8.914-2.516l.028-.008h0c2.677-.734,5.384-1.455,8.048-2.142,2.38-.618,4.6-1.181,6.789-1.722q2.173-.541,4.423-1.077c3.479-.844,7.111-1.687,10.791-2.507,3.081-.688,6.136-1.35,9.081-1.966,11.535-2.419,23.367-4.606,35.167-6.5,86.7-13.912,222.361-20.278,376.281,28.4a.581.581,0,0,1-.175,1.135Z" transform="translate(-173.332 -174.75)" fill="#ccc"/>
      <path id="Path_14" data-name="Path 14" d="M353.186,540.081a3.912,3.912,0,0,0-.988-1.552,3.742,3.742,0,0,0-.535-.413,4.468,4.468,0,0,0-5.226,0,3.381,3.381,0,0,0-.4.413q-.645.793-1.325,1.552c-.744.849-1.506,1.668-2.3,2.465-.227.221-.453.448-.686.668-.134.134-.267.262-.4.389-.512.488-1.035.959-1.564,1.424-.279.25-.558.494-.843.732-.424.355-.849.709-1.279,1.052-.041.029-.081.058-.122.093-.012.006-.017.018-.029.023s-.012,0-.017.012a.1.1,0,0,0-.041.029c-.128.087-.215.145-.279.2.023-.012.047-.029.07-.041-.1.081-.215.163-.32.244-1.017.75-2.058,1.471-3.122,2.145a57.667,57.667,0,0,1-8.266,4.389c-.192.076-.39.157-.587.232a49.975,49.975,0,0,1-23.746,3.5q-1.238-.1-2.476-.262c-.953-.14-1.9-.308-2.843-.5a56.93,56.93,0,0,1-10.475-3.162,68.971,68.971,0,0,1-12.01-7.045c-.581-.413-1.168-.826-1.756-1.227.668-1.639,1.325-3.279,1.965-4.93.32-.8.628-1.593.93-2.4,2.378-6.179,4.61-12.417,6.749-18.677q3.244-9.513,6.121-19.137.3-.977.575-1.953,1.509-5.083,2.895-10.19c.087-.331.18-.657.262-.988q.4-1.465.785-2.93a4.36,4.36,0,1,0-8.406-2.319c-.25.942-.5,1.878-.756,2.819q-1.84,6.827-3.871,13.608l-.593,1.953q-4.482,14.771-9.842,29.246-.645,1.753-1.308,3.494c-.215.57-.43,1.139-.651,1.709-.424,1.122-.86,2.244-1.3,3.366-.25.657-.506,1.314-.762,1.965-.169.413-.331.825-.494,1.232a24.3,24.3,0,0,0-5.121-1.232l-.279-.035a15.92,15.92,0,0,0-4.075.035,13.9,13.9,0,0,0-10.022,6.2c-2.773,4.366-2.738,10.609,1.151,14.318,4.005,3.819,10.068,3.79,14.783,1.4a16.481,16.481,0,0,0,6.115-5.732,29.4,29.4,0,0,0,1.593-2.7c.122.081.244.163.366.25.465.326.93.657,1.389.982a64.958,64.958,0,0,0,8.435,5.179,62.99,62.99,0,0,0,20.125,6.086c.157.017.308.041.465.058.773.1,1.552.174,2.331.238a60.329,60.329,0,0,0,32.309-6.6q1.264-.654,2.505-1.372,1.927-1.116,3.767-2.372c.668-.453,1.32-.913,1.965-1.4a58.729,58.729,0,0,0,7.854-6.947q1.369-1.439,2.622-2.971a4.686,4.686,0,0,0,1.279-3.081A4.4,4.4,0,0,0,353.186,540.081Zm-96.259,13.847c.122-.087.244-.18.36-.273C257.253,553.742,257.085,553.84,256.928,553.928Zm1.866-1.878c-.134.151-.256.3-.389.453a13.588,13.588,0,0,1-1.308,1.279c-.064.058-.134.116-.2.169l0,0a.006.006,0,0,0,0,0,2.214,2.214,0,0,0-.244.128q-.375.227-.767.418a9.893,9.893,0,0,1-1.575.436,9.78,9.78,0,0,1-1.238.012h-.012a8.622,8.622,0,0,1-.843-.233c-.139-.07-.273-.151-.407-.233-.052-.047-.1-.093-.128-.122a1.421,1.421,0,0,1-.157-.169.006.006,0,0,0,0,0l0,0c-.064-.116-.134-.233-.2-.349a.018.018,0,0,1-.006-.012c-.047-.145-.087-.3-.122-.448a7.268,7.268,0,0,1,.006-.8,7.822,7.822,0,0,1,.314-1.093,6.435,6.435,0,0,1,.4-.732c.012-.023.07-.116.134-.221.006-.006.006-.006.006-.012.087-.1.174-.2.267-.3.157-.174.326-.326.494-.482a10.483,10.483,0,0,1,1.017-.587,11.334,11.334,0,0,1,1.7-.459,14.524,14.524,0,0,1,2.564.023,17.633,17.633,0,0,1,2.383.587,21.47,21.47,0,0,1-1.61,2.639C258.84,551.986,258.817,552.021,258.794,552.05Zm-6.464-1.912a1.268,1.268,0,0,1-.18.227.82.82,0,0,1,.18-.227Z" transform="translate(-200.307 -296.025)" fill="#1d242b"/>
      <path id="Path_15" data-name="Path 15" d="M393.694,479l-.157,5.476q-.166,6.078-.343,12.161-.183,6.845-.384,13.684-.1,3.531-.2,7.063-.27,9.513-.535,19.02c-.017.657-.041,1.308-.058,1.965q-.131,4.717-.262,9.435-.148,5.118-.291,10.237-.1,3.837-.215,7.679l-1.57,55.683a4.446,4.446,0,0,1-4.36,4.36,4.4,4.4,0,0,1-4.36-4.36q.436-15.66.884-31.321.392-14.161.8-28.321.131-4.665.262-9.336.2-7.028.4-14.056c.017-.657.041-1.308.058-1.965.012-.576.029-1.145.047-1.721q.384-13.646.767-27.3.157-5.371.3-10.748.174-6.13.349-12.254c.052-1.8.1-3.587.151-5.383a4.446,4.446,0,0,1,4.36-4.36A4.4,4.4,0,0,1,393.694,479Z" transform="translate(-258.289 -294.309)" fill="#1d242b"/>
      <path id="Path_16" data-name="Path 16" d="M784.752,481.922a519.257,519.257,0,0,1-16.37,51.121c-1.748,4.619-3.536,9.229-5.448,13.784l.439-1.042a31.73,31.73,0,0,1-3.249,6.169q-.133.187-.271.37.678-.866.257-.342c-.148.175-.293.35-.446.52a13.738,13.738,0,0,1-1.307,1.281q-.175.15-.356.293l.545-.424c-.063.149-.507.347-.646.432a10.62,10.62,0,0,1-1.4.708l1.042-.44a11.09,11.09,0,0,1-2.46.675l1.159-.156a9.892,9.892,0,0,1-2.5.027l1.159.156a8.139,8.139,0,0,1-1.979-.533l1.041.44a6.986,6.986,0,0,1-.976-.521c-.158-.1-.643-.47-.009.014.659.5.085.043-.051-.091-.113-.111-.215-.232-.325-.346-.513-.526.579.9.231.29a10.563,10.563,0,0,1-.51-.951l.439,1.041a6.929,6.929,0,0,1-.423-1.541l.156,1.159a7.934,7.934,0,0,1,0-1.979l-.156,1.159a9.286,9.286,0,0,1,.578-2.139l-.44,1.041a9.73,9.73,0,0,1,.685-1.336,3.921,3.921,0,0,1,.423-.623c.029.009-.737.879-.331.44.106-.115.206-.236.313-.35.172-.183.357-.349.538-.522.607-.578-.85.562-.149.1a11.076,11.076,0,0,1,1.6-.872l-1.041.44a11.807,11.807,0,0,1,2.9-.779l-1.159.156a14.891,14.891,0,0,1,3.756.044l-1.159-.156a19.3,19.3,0,0,1,4.588,1.29l-1.041-.44a48.5,48.5,0,0,1,8.678,5.3,65.077,65.077,0,0,0,8.433,5.177,63.008,63.008,0,0,0,20.126,6.088A60.417,60.417,0,0,0,853.459,544.7a4.7,4.7,0,0,0,1.277-3.083,4.437,4.437,0,0,0-1.277-3.083c-1.6-1.468-4.621-1.883-6.166,0a55.588,55.588,0,0,1-4.712,5.073q-1.173,1.113-2.408,2.156-.705.6-1.43,1.169c-.229.181-.941.661.153-.115-.251.178-.491.372-.739.555a57.7,57.7,0,0,1-11.819,6.723l1.042-.44a56.291,56.291,0,0,1-14.051,3.85l1.159-.156a56.764,56.764,0,0,1-14.971-.022l1.159.156a58.017,58.017,0,0,1-14.45-3.936l1.041.44a67.444,67.444,0,0,1-12.635-7.319,50.525,50.525,0,0,0-6.46-4.066,24.894,24.894,0,0,0-8.393-2.551,14.471,14.471,0,0,0-14.094,6.232c-2.776,4.363-2.74,10.605,1.147,14.315,4,3.821,10.067,3.788,14.786,1.4,4.544-2.3,7.274-7.083,9.193-11.592,4.32-10.147,8.144-20.528,11.707-30.962q5.288-15.484,9.591-31.282.533-1.957,1.05-3.917a4.361,4.361,0,1,0-8.408-2.318Z" transform="translate(-410.181 -296.026)" fill="#1d242b"/>
      <path id="Path_17" data-name="Path 17" d="M886.234,479l-1.569,55.685-1.561,55.4-.883,31.323a4.4,4.4,0,0,0,4.36,4.36,4.447,4.447,0,0,0,4.36-4.36l1.569-55.685,1.561-55.4L894.953,479a4.4,4.4,0,0,0-4.36-4.36A4.447,4.447,0,0,0,886.234,479Z" transform="translate(-468.162 -294.309)" fill="#1d242b"/>
      <path id="Path_18" data-name="Path 18" d="M580.4,619.431h1.354V557.788h31.581v-1.35H581.752v-26.01h24.389q-.536-.682-1.1-1.347H581.752V511.9c-.448-.191-.9-.375-1.354-.548v17.728H553.861V507.07c-.455.021-.9.052-1.354.09v21.921H531.335V512.659c-.455.2-.9.413-1.347.635v15.787h-17.8v1.347h17.8v26.01h-17.8v1.35h17.8v61.643h1.347V557.788a21.168,21.168,0,0,1,21.171,21.175v40.467h1.354V557.788H580.4Zm-49.063-62.993v-26.01h21.171v26.01Zm22.525,0v-26.01h.531A26.008,26.008,0,0,1,580.4,556.437Z" transform="translate(-313.233 -307.889)" opacity="0.2"/>
      <path id="Path_19" data-name="Path 19" d="M598.9,647.016a36.655,36.655,0,0,1-11.655,19.59c-.43.372-.86.732-1.308,1.087q-1.631.148-3.238.3c-.889.081-1.767.168-2.639.25l-.157.017-.11-.953-.442-3.86a21.87,21.87,0,0,1-1.918-18.858c1.535-4.139,4.313-7.8,7.045-11.423,3.773-5.011,7.441-9.964,7.574-16.073a35.2,35.2,0,0,1,4.592,7.749,9.552,9.552,0,0,0-2.976,2.191c-.238.262-.477.628-.314.942.14.267.488.331.791.366l2.186.227c.581.064,1.163.122,1.744.186a37.2,37.2,0,0,1,1.424,7.08A35.567,35.567,0,0,1,598.9,647.016Z" transform="translate(-340.005 -353.956)" fill="#1d242b"/>
      <path id="Path_20" data-name="Path 20" d="M621.029,642.32c-3.43,2.494-5.435,6.081-6.993,10.033a9.666,9.666,0,0,0-4.168,2.662c-.238.262-.477.628-.314.942.14.267.488.331.791.366l2.186.227c-1.558,4.674-2.988,9.51-5.743,13.457a21.5,21.5,0,0,1-6.993,6.342,22.361,22.361,0,0,1-2.337,1.157q-4.43.34-8.691.727-1.631.148-3.238.3c-.889.081-1.767.169-2.639.25q-.009-.48,0-.959a36.8,36.8,0,0,1,8.865-23.171c.262-.3.529-.6.8-.9a35.92,35.92,0,0,1,9.772-7.383A36.423,36.423,0,0,1,621.029,642.32Z" transform="translate(-342.832 -364.496)" fill="#0077c0"/>
      <path id="Path_21" data-name="Path 21" d="M577.866,664.967l-.668,1.976-.337,1.006c-.889.081-1.767.169-2.639.25l-.157.017-2.883.3c-.25-.291-.5-.587-.744-.889a36.059,36.059,0,0,1,4.691-50.638c-.767,4.017.128,7.865,1.6,11.684-.157.064-.308.128-.453.2a9.552,9.552,0,0,0-2.976,2.192c-.238.262-.477.628-.314.942.14.267.488.331.791.366l2.186.227c.581.064,1.163.122,1.744.186l.82.087c.041.087.076.169.116.256a70.617,70.617,0,0,1,4.447,10.946,25.377,25.377,0,0,1,.593,2.854A21.859,21.859,0,0,1,577.866,664.967Z" transform="translate(-334.163 -353.91)" fill="#0077c0"/>
      <path id="Path_22" data-name="Path 22" d="M603.282,529.333a64.4,64.4,0,0,0-21.876-24.01,66.407,66.407,0,0,0-30.555-10.684q-2.145-.195-4.3-.228c-1.7-.025-27.243,7.343-35.8,13.36a66.441,66.441,0,0,0-20.539,22.977,59.584,59.584,0,0,0-7.049,30.015,66.017,66.017,0,0,0,8.547,29.923,64.222,64.222,0,0,0,21.185,22.523c8.916,5.689,17.873,20.773,28.4,21.305,10.606.536,22.7-13.693,32.376-18.013a60.7,60.7,0,0,0,24.255-19.767,64.089,64.089,0,0,0,11.393-28.454,65.821,65.821,0,0,0-2.791-31.4,65.015,65.015,0,0,0-3.244-7.547,4.39,4.39,0,0,0-5.965-1.564,4.464,4.464,0,0,0-1.564,5.965q.911,1.795,1.695,3.649l-.44-1.041a58.794,58.794,0,0,1,4,14.846l-.156-1.159a63.5,63.5,0,0,1-.038,16.673l.156-1.159a63.79,63.79,0,0,1-4.392,16.087l.44-1.041a60.575,60.575,0,0,1-3.878,7.614q-1.118,1.852-2.372,3.617c-.367.516-.746,1.024-1.127,1.53-.5.66.678-.862.164-.215l-.263.331q-.4.495-.8.981a54.422,54.422,0,0,1-5.916,6.036q-.794.693-1.615,1.355c-.273.22-.542.449-.826.654.011-.008.918-.7.381-.3-.169.126-.336.254-.505.379q-1.692,1.253-3.473,2.379a60.158,60.158,0,0,1-8.578,4.484l1.042-.44a63.49,63.49,0,0,1-16.042,4.39l1.159-.156a62.869,62.869,0,0,1-16.619.029l1.159.156a58.032,58.032,0,0,1-14.588-3.944l1.041.44a54.441,54.441,0,0,1-7.8-4.064q-1.845-1.163-3.594-2.469c-.166-.124-.331-.25-.5-.375-.532-.4.382.3.39.3a11.116,11.116,0,0,1-.892-.712q-.845-.688-1.663-1.408a59.287,59.287,0,0,1-6.1-6.226q-.705-.833-1.38-1.692c-.195-.248-.55-.75.235.307-.1-.139-.211-.276-.315-.414q-.376-.5-.742-1-1.281-1.772-2.434-3.631a63.525,63.525,0,0,1-4.537-8.782l.44,1.041a61.961,61.961,0,0,1-4.267-15.6l.156,1.159a56.891,56.891,0,0,1-.028-14.9l-.156,1.159A55.034,55.034,0,0,1,496,538.671l-.44,1.042a59.045,59.045,0,0,1,4.183-8.055q1.2-1.932,2.545-3.77.305-.418.618-.83c.188-.249.706-.868-.177.226.087-.107.17-.218.255-.326q.738-.934,1.511-1.84a62.438,62.438,0,0,1,6.326-6.407q.857-.751,1.741-1.47.4-.327.809-.647c.109-.085.218-.169.326-.255-1.161.924-.323.251-.059.054q1.822-1.365,3.741-2.593a60.24,60.24,0,0,1,8.944-4.713l-1.042.44c4.511-1.894,24.5-6.365,28.132-5.877l-1.159-.156a61.753,61.753,0,0,1,15.533,4.291l-1.042-.439a64.106,64.106,0,0,1,7.325,3.679q1.769,1.037,3.469,2.187.8.544,1.592,1.113.394.284.783.575l.431.324c.6.453-.832-.656-.2-.155a64.445,64.445,0,0,1,6.027,5.379q1.4,1.421,2.7,2.933.667.776,1.306,1.574c.212.265.933,1.221.049.049.216.286.434.571.648.86a56.954,56.954,0,0,1,4.878,7.87,4.391,4.391,0,0,0,5.965,1.564A4.463,4.463,0,0,0,603.282,529.333Z" transform="translate(-301.066 -302.588)" fill="#1d242b"/>
      <path id="Path_23" data-name="Path 23" d="M564.589,619.934A2.2,2.2,0,0,1,563,616.125l.151-.6-.06-.144c-2.023-4.824-14.931,8.623-15.489,13.156a17.456,17.456,0,0,0,.306,6,69.987,69.987,0,0,1-6.366-29.067,67.577,67.577,0,0,1,.419-7.536q.347-3.077.963-6.11a70.793,70.793,0,0,1,14.039-30.005c4,.223,7.5-.386,7.836-8.13.06-1.378,1.082-2.57,1.307-3.927-.381.05-.769.081-1.151.106l-.363.019-.045,0a2.177,2.177,0,0,1-1.788-3.547l.495-.608c.25-.313.507-.619.757-.932a1.133,1.133,0,0,0,.081-.094c.288-.357.575-.707.863-1.063a6.3,6.3,0,0,0-2.064-1.995c-2.883-1.688-6.86-.519-8.943,2.089s-2.483,6.266-1.757,9.524a25.225,25.225,0,0,0,3.49,7.78c-.156.2-.319.394-.475.594a71.252,71.252,0,0,0-7.437,11.782c.591-4.615-6.634-21.28-9.427-24.81a6.08,6.08,0,0,0-10.829,2.985l-.017.156q.623.351,1.219.745a2.98,2.98,0,0,1-1.2,5.424l-.061.009c-5.555,7.931,12.252,28.574,16.71,23.939a72.724,72.724,0,0,0-3.915,18.423,68.963,68.963,0,0,0,.05,11.138l-.019-.131c-.99-8.07-17.98-20.068-22.942-19.069-2.858.576-5.673.445-5.239,3.328l.021.138a20.008,20.008,0,0,1,2.245,1.082q.623.351,1.219.745a2.98,2.98,0,0,1-1.2,5.424l-.061.009-.125.019c-2.528,8.7,16.223,22.741,27.622,18.273h.006a72.719,72.719,0,0,0,4.884,14.258h17.448c.063-.194.119-.394.175-.588a19.817,19.817,0,0,1-4.828-.288c1.294-1.588,2.589-3.189,3.883-4.778a1.083,1.083,0,0,0,.081-.094c.656-.813,1.319-1.62,1.976-2.433h0a29.038,29.038,0,0,0-.851-7.4Zm-19.98-39.3.009-.012-.009.025Zm-3.865,34.839-.15-.338c.006-.244.006-.488,0-.738,0-.069-.012-.138-.012-.206.056.432.106.863.169,1.295Z" transform="translate(-313.174 -322.039)" fill="#1d242b"/>
      <circle id="Ellipse_2" data-name="Ellipse 2" cx="6.394" cy="6.394" r="6.394" transform="translate(48.976 248.799)" fill="#1d242b"/>
      <circle id="Ellipse_3" data-name="Ellipse 3" cx="6.394" cy="6.394" r="6.394" transform="translate(125.709 318.556)" fill="#1d242b"/>
      <circle id="Ellipse_4" data-name="Ellipse 4" cx="6.394" cy="6.394" r="6.394" transform="translate(416.944 318.556)" fill="#1d242b"/>
      <circle id="Ellipse_5" data-name="Ellipse 5" cx="6.394" cy="6.394" r="6.394" transform="translate(432.639 237.173)" fill="#1d242b"/>
      <circle id="Ellipse_6" data-name="Ellipse 6" cx="6.394" cy="6.394" r="6.394" transform="translate(414.037 177.88)" fill="#1d242b"/>
      <path id="Path_24" data-name="Path 24" d="M425.014,578.83a6.365,6.365,0,1,1-.122-1.256,6.365,6.365,0,0,1,.122,1.256Z" transform="translate(-271.403 -335.263)" fill="#1d242b"/>
      <circle id="Ellipse_7" data-name="Ellipse 7" cx="6.394" cy="6.394" r="6.394" transform="translate(275.105 196.482)" fill="#1d242b"/>
      <path id="Path_25" data-name="Path 25" d="M536.014,508.831a6.365,6.365,0,1,1-.122-1.256A6.365,6.365,0,0,1,536.014,508.831Z" transform="translate(-317.878 -305.954)" fill="#1d242b"/>
      <path id="Path_26" data-name="Path 26" d="M394.014,476.83a6.365,6.365,0,1,1-.122-1.256A6.365,6.365,0,0,1,394.014,476.83Z" transform="translate(-258.423 -292.556)" fill="#1d242b"/>
      <circle id="Ellipse_8" data-name="Ellipse 8" cx="6.394" cy="6.394" r="6.394" transform="translate(341.955 251.124)" fill="#1d242b"/>
      <circle id="Ellipse_9" data-name="Ellipse 9" cx="9.301" cy="9.301" r="9.301" transform="translate(238.483 187.181)" fill="#1d242b"/>
      <path id="Path_27" data-name="Path 27" d="M669.247,734.27l-498.616.179a.692.692,0,0,1,0-1.384l498.616-.179a.692.692,0,0,1,0,1.384Z" transform="translate(-169.934 -402.436)" fill="#cacaca"/>
    </g>
  </g>
</svg>
